<?xml version="1.0" standalone="no"?>
<!DOCTYPE svg PUBLIC "-//W3C//DTD SVG 20010904//EN"
 "http://www.w3.org/TR/2001/REC-SVG-20010904/DTD/svg10.dtd">
<svg version="1.0" xmlns="http://www.w3.org/2000/svg"
 width="1240.000000pt" height="1240.000000pt" viewBox="0 0 1240.000000 1240.000000"
 preserveAspectRatio="xMidYMid meet">
<metadata>
Created by potrace 1.14, written by Peter Selinger 2001-2017
</metadata>
<g transform="translate(0.000000,1240.000000) scale(0.100000,-0.100000)"
fill="#000000" stroke="none">
<path d="M2734 12371 c-66 -31 -104 -65 -104 -92 0 -17 5 -19 93 -35 9 -1 22
-6 27 -9 6 -3 10 -2 10 4 0 6 6 9 13 6 6 -2 35 -6 63 -9 154 -17 294 -111 331
-223 19 -57 19 -169 17 -5813 -1 -3165 -4 -5764 -7 -5775 -23 -83 -70 -158
-111 -176 -12 -5 -34 -17 -51 -27 -86 -51 -139 -62 -348 -71 -70 -3 -26 -70
79 -122 l60 -30 2135 4 c1174 2 2179 7 2234 10 55 3 147 8 205 12 58 3 132 8
165 10 33 2 94 7 135 10 41 3 95 8 120 10 25 3 70 8 100 10 82 7 129 13 140
20 6 3 10 1 10 -5 0 -6 5 -8 10 -5 13 8 30 11 190 31 42 6 146 22 180 29 13 2
42 7 65 11 22 3 83 15 135 26 52 11 104 22 115 23 29 6 248 64 265 72 8 3 20
7 26 8 7 2 55 22 109 44 317 136 516 347 594 631 28 98 35 165 34 305 0 134
-2 164 -14 215 -4 19 -10 49 -12 65 -18 113 -94 260 -186 359 -45 47 -213 166
-236 166 -6 0 -16 5 -22 11 -12 12 -72 36 -178 71 -103 34 -215 50 -359 52
-268 4 -375 -29 -415 -129 -14 -37 -8 -128 11 -175 8 -19 15 -37 15 -40 0 -3
29 -95 65 -205 57 -172 77 -238 79 -260 0 -2 5 -19 10 -37 5 -18 12 -51 14
-73 3 -22 8 -56 11 -75 3 -19 8 -105 10 -190 3 -115 0 -167 -11 -203 -8 -26
-15 -51 -16 -55 -1 -4 -5 -17 -10 -30 -5 -13 -9 -28 -9 -33 0 -5 -4 -9 -10 -9
-5 0 -10 -7 -10 -15 0 -16 -14 -36 -80 -108 -53 -58 -138 -118 -218 -154 -81
-36 -210 -82 -216 -76 -2 3 -13 0 -23 -5 -10 -6 -36 -13 -58 -16 -47 -8 -81
-14 -115 -21 -14 -3 -40 -8 -57 -10 -18 -3 -50 -8 -70 -11 -21 -3 -49 -7 -63
-9 -14 -1 -52 -6 -85 -10 -33 -4 -71 -8 -85 -10 -14 -1 -56 -5 -95 -9 -38 -3
-95 -8 -125 -11 -49 -5 -101 -9 -265 -19 -222 -15 -472 -24 -819 -31 -153 -3
-282 -8 -287 -11 -5 -3 -9 -2 -9 3 0 4 -22 8 -50 8 -27 0 -50 -2 -50 -5 0 -3
-55 -4 -122 -2 -142 3 -131 3 -183 1 -44 -2 -227 8 -290 16 -89 11 -121 15
-145 20 -14 3 -46 8 -72 12 -27 3 -48 10 -48 15 0 5 -4 7 -9 4 -9 -6 -115 26
-201 60 -157 62 -261 195 -315 404 -9 36 -19 76 -21 90 -2 14 -5 35 -8 48 -3
13 -9 58 -13 100 -10 101 -10 5100 0 5217 10 107 14 137 33 235 21 101 41 168
75 245 7 17 13 32 14 35 3 13 59 115 69 126 6 7 22 27 36 45 103 135 297 258
450 286 58 10 261 7 320 -6 30 -6 64 -13 75 -15 11 -2 56 -18 100 -35 44 -17
84 -30 89 -30 5 0 12 -3 15 -8 3 -5 29 -19 56 -32 68 -31 287 -178 355 -238
88 -77 186 -180 248 -258 43 -54 92 -126 92 -135 0 -5 3 -10 8 -10 8 0 21 -22
85 -140 128 -235 259 -335 427 -326 51 2 159 31 170 45 3 4 19 15 35 26 80 50
179 170 203 245 41 124 49 268 22 375 -12 48 -51 143 -71 175 -5 8 -13 24 -18
35 -14 32 -147 214 -204 280 -60 70 -199 205 -209 205 -5 0 -16 7 -25 16 -90
80 -287 182 -468 242 -66 22 -134 43 -150 46 -124 24 -198 37 -250 42 -86 9
-286 9 -380 0 -142 -14 -149 -15 -195 -27 -25 -6 -55 -13 -66 -15 -12 -2 -53
-13 -90 -25 -243 -73 -460 -196 -609 -344 -88 -88 -103 -105 -131 -156 -10
-19 -23 -37 -29 -41 -5 -4 -7 -8 -2 -8 4 0 1 -10 -8 -23 -20 -31 -65 -158 -59
-168 2 -4 0 -10 -5 -14 -5 -3 -8 -14 -6 -25 2 -11 0 -20 -4 -20 -5 0 -8 1178
-7 2618 l1 2617 22 48 c40 86 104 136 238 184 68 24 32 23 985 37 190 3 523 8
740 12 217 3 513 7 657 8 145 0 263 4 263 8 0 4 13 3 29 -2 16 -4 32 -6 34 -4
6 6 57 6 437 -1 318 -6 350 -7 540 -20 132 -8 165 -11 215 -18 22 -4 60 -9 85
-12 24 -4 47 -8 51 -10 3 -2 19 -7 35 -9 61 -12 70 -15 126 -39 79 -35 121
-77 123 -125 3 -73 -32 -159 -108 -267 -28 -38 -57 -78 -66 -87 -33 -35 -42
-49 -76 -115 -34 -65 -54 -120 -63 -173 -7 -44 -7 -264 1 -301 23 -111 77
-210 157 -290 100 -101 206 -137 385 -133 61 2 121 5 135 8 14 4 38 9 54 11
15 3 41 12 57 21 16 8 30 13 31 12 6 -4 104 57 132 82 50 44 86 80 86 86 0 2
9 14 19 26 46 49 114 218 128 319 12 82 8 287 -6 349 -35 146 -108 277 -218
386 -69 69 -197 164 -220 164 -7 0 -13 4 -13 8 0 26 -333 150 -477 178 -95 18
-244 42 -313 49 -30 3 -77 9 -105 12 -27 4 -1299 8 -2825 9 l-2775 3 -61 -28z"/>
</g>
</svg>
